<mxfile host="Electron" modified="2023-07-17T02:46:49.349Z" agent="Mozilla/5.0 (Macintosh; Intel Mac OS X 10_15_7) AppleWebKit/537.36 (KHTML, like Gecko) draw.io/21.6.1 Chrome/112.0.5615.204 Electron/24.6.1 Safari/537.36" etag="DIvWpRoVnE0mETG7xQ08" version="21.6.1" type="device">
  <diagram name="第 1 页" id="S-5Kea-OTjHteNc5SA1U">
    <mxGraphModel dx="2069" dy="878" grid="1" gridSize="10" guides="1" tooltips="1" connect="1" arrows="1" fold="1" page="1" pageScale="1" pageWidth="827" pageHeight="1169" math="0" shadow="0">
      <root>
        <mxCell id="0" />
        <mxCell id="1" parent="0" />
        <mxCell id="k9_Uz92mv6PH36y3GLMy-9" style="edgeStyle=orthogonalEdgeStyle;rounded=0;orthogonalLoop=1;jettySize=auto;html=1;exitX=0.5;exitY=1;exitDx=0;exitDy=0;fontFamily=Helvetica;fontSize=20;fontColor=#FF0839;" edge="1" parent="1" source="k9_Uz92mv6PH36y3GLMy-1">
          <mxGeometry relative="1" as="geometry">
            <mxPoint x="374" y="340" as="targetPoint" />
          </mxGeometry>
        </mxCell>
        <mxCell id="k9_Uz92mv6PH36y3GLMy-13" value="上报异常事件" style="edgeLabel;html=1;align=center;verticalAlign=middle;resizable=0;points=[];fontSize=20;fontFamily=Helvetica;fontColor=#FF0839;" vertex="1" connectable="0" parent="k9_Uz92mv6PH36y3GLMy-9">
          <mxGeometry x="-0.0769" y="-1" relative="1" as="geometry">
            <mxPoint as="offset" />
          </mxGeometry>
        </mxCell>
        <mxCell id="k9_Uz92mv6PH36y3GLMy-1" value="xxx-services" style="rounded=0;whiteSpace=wrap;html=1;fontSize=20;fontColor=#FF0839;" vertex="1" parent="1">
          <mxGeometry x="314" y="170" width="120" height="60" as="geometry" />
        </mxCell>
        <mxCell id="k9_Uz92mv6PH36y3GLMy-2" value="基于kafka 的接口监控告警" style="text;html=1;align=center;verticalAlign=middle;resizable=0;points=[];autosize=1;strokeColor=none;fillColor=none;fontSize=20;fontColor=#FF1736;" vertex="1" parent="1">
          <mxGeometry x="290" y="53" width="260" height="40" as="geometry" />
        </mxCell>
        <mxCell id="k9_Uz92mv6PH36y3GLMy-6" style="edgeStyle=orthogonalEdgeStyle;rounded=0;orthogonalLoop=1;jettySize=auto;html=1;fontFamily=Helvetica;fontSize=20;fontColor=#FF1736;" edge="1" parent="1" source="k9_Uz92mv6PH36y3GLMy-3" target="k9_Uz92mv6PH36y3GLMy-1">
          <mxGeometry relative="1" as="geometry" />
        </mxCell>
        <mxCell id="k9_Uz92mv6PH36y3GLMy-7" value="接口传输非法参数" style="edgeLabel;html=1;align=center;verticalAlign=middle;resizable=0;points=[];fontSize=20;fontFamily=Helvetica;fontColor=#FF1736;" vertex="1" connectable="0" parent="k9_Uz92mv6PH36y3GLMy-6">
          <mxGeometry x="0.0286" y="-2" relative="1" as="geometry">
            <mxPoint as="offset" />
          </mxGeometry>
        </mxCell>
        <mxCell id="k9_Uz92mv6PH36y3GLMy-3" value="Actor" style="shape=umlActor;verticalLabelPosition=bottom;verticalAlign=top;html=1;outlineConnect=0;fontFamily=Helvetica;fontSize=20;fontColor=#FF1736;fillColor=none;gradientColor=none;" vertex="1" parent="1">
          <mxGeometry x="-10" y="170" width="20" height="60" as="geometry" />
        </mxCell>
        <mxCell id="k9_Uz92mv6PH36y3GLMy-11" style="edgeStyle=orthogonalEdgeStyle;rounded=0;orthogonalLoop=1;jettySize=auto;html=1;exitX=1;exitY=0.5;exitDx=0;exitDy=0;exitPerimeter=0;fontFamily=Helvetica;fontSize=20;fontColor=#FF0839;" edge="1" parent="1" source="k9_Uz92mv6PH36y3GLMy-8" target="k9_Uz92mv6PH36y3GLMy-10">
          <mxGeometry relative="1" as="geometry" />
        </mxCell>
        <mxCell id="k9_Uz92mv6PH36y3GLMy-12" value="监听异常事件消息" style="edgeLabel;html=1;align=center;verticalAlign=middle;resizable=0;points=[];fontSize=20;fontFamily=Helvetica;fontColor=#FF0839;" vertex="1" connectable="0" parent="k9_Uz92mv6PH36y3GLMy-11">
          <mxGeometry x="-0.06" y="2" relative="1" as="geometry">
            <mxPoint as="offset" />
          </mxGeometry>
        </mxCell>
        <mxCell id="k9_Uz92mv6PH36y3GLMy-8" value="kafka" style="shape=cylinder3;whiteSpace=wrap;html=1;boundedLbl=1;backgroundOutline=1;size=15;rounded=0;strokeColor=default;fontFamily=Helvetica;fontSize=20;fontColor=#FF0839;fillColor=default;direction=south;" vertex="1" parent="1">
          <mxGeometry x="334" y="350" width="80" height="60" as="geometry" />
        </mxCell>
        <mxCell id="k9_Uz92mv6PH36y3GLMy-15" style="edgeStyle=orthogonalEdgeStyle;rounded=0;orthogonalLoop=1;jettySize=auto;html=1;exitX=1;exitY=0.5;exitDx=0;exitDy=0;entryX=0;entryY=0.5;entryDx=0;entryDy=0;fontFamily=Helvetica;fontSize=20;fontColor=#FF0839;" edge="1" parent="1" source="k9_Uz92mv6PH36y3GLMy-10" target="k9_Uz92mv6PH36y3GLMy-14">
          <mxGeometry relative="1" as="geometry" />
        </mxCell>
        <mxCell id="k9_Uz92mv6PH36y3GLMy-16" value="触发报警阈值" style="edgeLabel;html=1;align=center;verticalAlign=middle;resizable=0;points=[];fontSize=20;fontFamily=Helvetica;fontColor=#FF0839;" vertex="1" connectable="0" parent="k9_Uz92mv6PH36y3GLMy-15">
          <mxGeometry x="-0.0408" relative="1" as="geometry">
            <mxPoint as="offset" />
          </mxGeometry>
        </mxCell>
        <mxCell id="k9_Uz92mv6PH36y3GLMy-10" value="app-services" style="rounded=0;whiteSpace=wrap;html=1;strokeColor=default;fontFamily=Helvetica;fontSize=20;fontColor=#FF0839;fillColor=default;" vertex="1" parent="1">
          <mxGeometry x="314" y="510" width="120" height="60" as="geometry" />
        </mxCell>
        <mxCell id="k9_Uz92mv6PH36y3GLMy-14" value="飞书" style="rounded=0;whiteSpace=wrap;html=1;strokeColor=default;fontFamily=Helvetica;fontSize=20;fontColor=#FF0839;fillColor=default;" vertex="1" parent="1">
          <mxGeometry x="630" y="510" width="120" height="60" as="geometry" />
        </mxCell>
      </root>
    </mxGraphModel>
  </diagram>
</mxfile>
